<svg width="44" height="32" viewBox="0 0 44 32" fill="none" xmlns="http://www.w3.org/2000/svg">
<rect width="44" height="32" fill="white"/>
<path d="M10.3472 19.4893V15.7451H2.0415V19.4893H10.3472Z" fill="black"/>
<path d="M16.939 17.3535H18.9297C20.7754 17.3535 21.7773 18.3818 21.7773 19.6606C21.7905 21.0054 20.7227 22.0205 18.9824 22.0205C17.2949 22.0205 16.1479 21.0713 16.0557 19.7793H12.0742C12.1138 22.7192 14.2627 25.3296 18.877 25.3296C22.7397 25.3296 26.1411 23.2861 26.1147 19.9375C26.0884 17.0898 24.0713 15.7319 22.3311 15.6133V15.4287C23.689 15.2441 25.6006 13.9653 25.5742 11.4077C25.5479 8.61279 22.7529 6.68799 19.0483 6.68799C14.8428 6.68799 12.4434 8.95557 12.3247 12.1592H16.3721C16.4116 11.0781 17.2817 9.93115 18.877 9.93115C20.3271 9.93115 21.3291 10.8145 21.3423 11.9746C21.3423 13.2271 20.3535 14.1367 18.8374 14.1367H16.939V17.3535Z" fill="black"/>
<path d="M28.2373 19.9639C28.3032 22.9038 30.7026 25.3296 35.0269 25.3296C39.2324 25.3296 42.2383 22.8511 42.2383 18.8037C42.2383 15.0859 39.4302 12.8843 36.3188 12.8843C34.1172 12.8843 32.8647 13.8467 32.4692 14.4268H32.2979L32.667 10.4058H40.9463V6.99121H29.2393L28.4746 17.6567H32.3374C32.667 16.958 33.5635 16.0615 35.0928 16.0615C36.7803 16.0615 38.0195 17.2612 38.0195 19.0146C38.0195 20.8472 36.6221 21.981 35.0928 21.981C33.5107 21.981 32.377 21.1636 32.1924 19.9639H28.2373Z" fill="black"/>
</svg>
