<svg width="44" height="32" viewBox="0 0 44 32" fill="none" xmlns="http://www.w3.org/2000/svg">
<rect width="44" height="32" fill="white"/>
<path d="M9.30566 17.8013V14.0571H1V17.8013H9.30566Z" fill="black"/>
<path d="M15.8975 17.6655H17.8882C19.7339 17.6655 20.7358 18.6938 20.7358 19.9727C20.749 21.3174 19.6812 22.3325 17.9409 22.3325C16.2534 22.3325 15.1064 21.3833 15.0142 20.0913H11.0327C11.0723 23.0312 13.2212 25.6416 17.8354 25.6416C21.6982 25.6416 25.0996 23.5981 25.0732 20.2495C25.0469 17.4019 23.0298 16.0439 21.2896 15.9253V15.7407C22.6475 15.5562 24.5591 14.2773 24.5327 11.7197C24.5063 8.9248 21.7114 7 18.0068 7C13.8013 7 11.4019 9.26758 11.2832 12.4712H15.3306C15.3701 11.3901 16.2402 10.2432 17.8354 10.2432C19.2856 10.2432 20.2876 11.1265 20.3008 12.2866C20.3008 13.5391 19.312 14.4487 17.7959 14.4487H15.8975V17.6655Z" fill="black"/>
<path d="M31.1509 15.7407C31.1509 12.1548 32.2583 10.4805 33.9062 10.4805C35.541 10.4805 36.6616 12.1812 36.6616 15.7407V16.8613C36.6616 20.4209 35.541 22.1611 33.9062 22.1611C32.2583 22.1611 31.1509 20.4473 31.1509 16.8613V15.7407ZM26.7871 16.8745C26.7871 22.0688 29.2788 25.6416 33.8535 25.6416C38.6523 25.6416 41.0122 21.7393 41.0122 16.8745V15.7275C41.0122 10.4937 38.5337 7 33.9458 7C29.3975 7 26.7871 10.5332 26.7871 15.7275V16.8745Z" fill="black"/>
</svg>
