<svg width="785" height="785" viewBox="0 0 785 785" fill="none" xmlns="http://www.w3.org/2000/svg">
<path d="M457.2 370.4L349.2 338.8C336.7 335.2 328 323.5 328 310.5C328 294.2 341.2 281 357.5 281H423.8C436 281 448 284.7 458 291.5C464.1 295.6 472.3 294.6 477.5 289.5L512.3 255.5C519.4 248.6 518.4 237.1 510.5 231C486 211.8 455.4 201.1 424 201V153C424 144.2 416.8 137 408 137H376C367.2 137 360 144.2 360 153V201H357.5C293.8 201 242.6 255.7 248.5 320.6C252.7 366.7 287.9 404.2 332.3 417.2L434.8 447.2C447.3 450.9 456 462.5 456 475.5C456 491.8 442.8 505 426.5 505H360.2C348 505 336 501.3 326 494.5C319.9 490.4 311.7 491.4 306.5 496.5L271.7 530.5C264.6 537.4 265.6 548.9 273.5 555C298 574.2 328.6 584.9 360 585V633C360 641.8 367.2 649 376 649H408C416.8 649 424 641.8 424 633V584.8C470.6 583.9 514.3 556.2 529.7 512.1C551.2 450.5 515.1 387.3 457.2 370.4V370.4Z" fill="black"/>
<path fill-rule="evenodd" clip-rule="evenodd" d="M392.5 785C609.272 785 785 609.272 785 392.5C785 175.728 609.272 0 392.5 0C175.728 0 0 175.728 0 392.5C0 609.272 175.728 785 392.5 785ZM392.5 693.397C558.681 693.397 693.397 558.681 693.397 392.5C693.397 226.319 558.681 91.6027 392.5 91.6027C226.319 91.6027 91.6027 226.319 91.6027 392.5C91.6027 558.681 226.319 693.397 392.5 693.397Z" fill="black"/>
<rect x="586.761" y="462.196" width="140.917" height="91" transform="rotate(30 586.761 462.196)" fill="black"/>
<rect x="120.5" y="193" width="143.916" height="91" transform="rotate(30 120.5 193)" fill="black"/>
</svg>
