<svg width="504" height="194" viewBox="0 0 504 194" fill="none" xmlns="http://www.w3.org/2000/svg">
<path d="M12.3329 181.918C9.33293 183.118 7.63293 181.618 8.63293 178.518L17.1329 151.018C18.1942 147.283 18.567 143.387 18.2329 139.518L0.0329321 46.1183C-0.0496343 45.3535 0.0234457 44.5799 0.24777 43.8442C0.472095 43.1084 0.843022 42.4256 1.33821 41.837C1.8334 41.2484 2.44261 40.7661 3.12914 40.4191C3.81567 40.0722 4.56532 39.8678 5.33293 39.8183L498.533 0.0182611C499.267 -0.0446139 500.005 0.0553364 500.696 0.31097C501.386 0.566604 502.012 0.971612 502.528 1.49705C503.044 2.02249 503.437 2.65539 503.68 3.35052C503.923 4.04566 504.009 4.78587 503.933 5.51826L479.833 188.018C479.661 189.594 478.891 191.043 477.681 192.066C476.472 193.09 474.915 193.61 473.333 193.518L69.3329 161.118C65.4452 161 61.572 161.645 57.9329 163.018L12.3329 181.918ZM234.233 76.9183C227.533 76.9183 222.233 79.0183 218.333 83.0183V54.8183H205.733V113.618C205.733 122.218 208.333 129.318 213.433 134.618C218.533 139.918 225.533 142.618 234.333 142.618C243.133 142.618 250.233 139.918 255.333 134.618C260.433 129.318 263.033 122.218 263.033 113.618V106.518C262.933 86.9182 253.333 76.9183 234.233 76.9183ZM234.233 89.2183C239.533 89.2183 243.533 90.5183 246.233 93.2183C248.933 95.9183 250.333 100.418 250.333 106.618V113.718C250.333 118.918 248.933 122.918 246.033 126.018C243.133 129.118 239.333 130.518 234.233 130.518C229.133 130.518 225.233 129.018 222.533 126.018C219.833 123.018 218.333 118.918 218.333 113.718V106.518C218.333 100.318 219.733 95.8183 222.333 93.1183C224.933 90.4183 229.033 89.2183 234.233 89.2183ZM325.733 91.0182H285.833V54.6183H272.833V141.918H285.833V103.718H325.733V141.918H338.833V54.6183H325.733V91.0182ZM437.633 76.9183C430.933 76.9183 425.633 79.0183 421.733 83.0183V54.8183H409.133V113.618C409.133 122.218 411.733 129.318 416.833 134.618C421.933 139.918 428.933 142.618 437.733 142.618C446.533 142.618 453.633 139.918 458.733 134.618C463.833 129.318 466.433 122.218 466.433 113.618V106.518C466.333 86.9182 456.633 76.9183 437.633 76.9183ZM437.633 89.2183C442.933 89.2183 446.933 90.5183 449.633 93.2183C452.333 95.9183 453.733 100.418 453.733 106.618V113.718C453.733 118.818 452.333 123.018 449.433 126.018C446.533 129.018 442.633 130.518 437.633 130.518C432.633 130.518 428.633 129.018 425.933 126.018C423.233 123.018 421.733 118.918 421.733 113.718V106.518C421.733 100.318 423.133 95.8183 425.733 93.1183C428.333 90.4183 432.433 89.2183 437.633 89.2183ZM183.333 113.018C183.333 119.518 182.333 124.218 180.433 126.718C178.533 129.218 175.433 130.418 170.733 130.418H170.333C165.733 130.418 162.433 129.118 160.633 126.718C158.733 124.118 157.733 119.518 157.733 113.018V78.6183H145.333V113.018C145.333 123.518 147.233 131.218 151.133 135.718C154.833 140.118 160.833 142.418 169.033 142.618H171.933C180.133 142.418 186.133 140.118 189.833 135.718C193.633 131.118 195.633 123.518 195.633 113.018V78.6183H183.333V113.018ZM386.733 113.018C386.733 119.518 385.733 124.118 383.833 126.718C382.033 129.118 378.833 130.418 374.233 130.418H373.633C369.033 130.418 365.733 129.118 363.933 126.718C362.033 124.118 361.033 119.518 361.033 113.018V78.6183H348.633V113.018C348.633 123.518 350.533 131.218 354.433 135.718C358.133 140.118 364.133 142.418 372.333 142.618H375.333C383.533 142.418 389.533 140.118 393.233 135.718C396.933 131.318 399.033 123.518 399.033 113.018V78.6183H386.633V113.018H386.733ZM83.1329 94.6183L52.8329 84.5183C51.0423 83.9588 49.4013 83.0016 48.0329 81.7183C47.5352 81.2952 47.1281 80.776 46.8359 80.1918C46.5438 79.6075 46.3727 78.9703 46.3329 78.3183V76.3183C46.3329 69.2183 52.2329 65.6183 64.3329 65.4183H65.4329C77.5329 65.4183 83.7329 68.6183 84.4329 75.1183L84.5329 76.1183H97.5329V75.0183C96.9329 60.2183 86.1329 52.6183 65.4329 52.6183H64.1329C43.8329 52.8183 33.6329 60.8183 33.6329 76.3183V78.3183C33.5961 82.4381 35.0124 86.4391 37.6329 89.6183C40.2329 92.7183 44.1329 95.1183 49.0329 96.7183L79.0329 106.818C84.1329 108.518 86.6329 111.318 86.6329 115.518V117.318C86.6329 121.018 84.8329 123.818 81.1329 126.018C77.4329 128.218 71.9329 129.418 65.1329 129.418C58.3329 129.418 53.0329 128.318 49.3329 126.018C45.6329 123.718 44.0329 121.018 44.0329 117.318V116.018H31.1329V117.318C31.0466 120.865 31.831 124.378 33.4174 127.551C35.0039 130.724 37.344 133.46 40.2329 135.518C46.2329 139.918 54.5329 142.218 65.1329 142.218C75.7329 142.218 84.3329 140.018 90.2329 135.518C93.1379 133.475 95.4901 130.743 97.0784 127.566C98.6667 124.389 99.4414 120.868 99.3329 117.318V115.518C99.4417 110.772 97.885 106.137 94.9329 102.418C91.8216 98.7488 87.7281 96.043 83.1329 94.6183ZM126.133 126.118C123.333 123.118 121.933 119.018 121.933 113.818V91.4183H135.433V78.6183H121.933V54.8183H109.333V113.818C109.333 122.418 111.933 129.518 117.033 134.818C121.616 139.438 127.737 142.214 134.233 142.618L135.433 142.718V130.518L134.533 130.418C131.331 129.963 128.374 128.449 126.133 126.118ZM463.233 75.1183H464.833V79.7183H465.633V75.1183H467.233V74.5183H463.233V75.1183ZM470.533 78.2183L469.133 74.5183H467.933V79.7183H468.633V75.4183L470.333 79.7183H470.833L472.433 75.4183V79.7183H473.233V74.5183H471.933L470.533 78.2183Z" fill="black"/>
</svg>
