<svg width="604" height="274" viewBox="0 0 604 274" fill="none" xmlns="http://www.w3.org/2000/svg">
<g clip-path="url(#clip0_308_2)">
<path d="M12.33 261.91C9.33 263.11 7.63 261.61 8.63 258.51L17.13 231.01C18.1913 227.275 18.564 223.378 18.23 219.51L0.0300025 46.11C-0.052564 45.3452 0.0205158 44.5716 0.24484 43.8358C0.469165 43.1001 0.840092 42.4173 1.33528 41.8287C1.83047 41.2401 2.43968 40.7578 3.12621 40.4108C3.81274 40.0639 4.56239 39.8595 5.33 39.81L598.53 0.0099603C599.264 -0.0529147 600.002 0.0470359 600.693 0.30267C601.383 0.558304 602.009 0.963311 602.525 1.48875C603.041 2.01419 603.434 2.64709 603.677 3.34222C603.92 4.03736 604.006 4.77757 603.93 5.50996L579.83 268.01C579.658 269.585 578.888 271.034 577.678 272.058C576.469 273.082 574.912 273.601 573.33 273.51L69.33 241.11C65.4423 240.991 61.5691 241.637 57.93 243.01L12.33 261.91ZM284.23 116.91C277.53 116.91 272.23 119.01 268.33 123.01V94.81H255.73V153.61C255.73 162.21 258.33 169.31 263.43 174.61C268.53 179.91 275.53 182.61 284.33 182.61C293.13 182.61 300.23 179.91 305.33 174.61C310.43 169.31 313.03 162.21 313.03 153.61V146.51C312.93 126.91 303.33 116.91 284.23 116.91ZM284.23 129.21C289.53 129.21 293.53 130.51 296.23 133.21C298.93 135.91 300.33 140.41 300.33 146.61V153.71C300.33 158.91 298.93 162.91 296.03 166.01C293.13 169.11 289.33 170.51 284.23 170.51C279.13 170.51 275.23 169.01 272.53 166.01C269.83 163.01 268.33 158.91 268.33 153.71V146.51C268.33 140.31 269.73 135.81 272.33 133.11C274.93 130.41 279.03 129.21 284.23 129.21ZM375.73 131.01H335.83V94.61H322.83V181.91H335.83V143.71H375.73V181.91H388.83V94.61H375.73V131.01V131.01ZM487.63 116.91C480.93 116.91 475.63 119.01 471.73 123.01V94.81H459.13V153.61C459.13 162.21 461.73 169.31 466.83 174.61C471.93 179.91 478.93 182.61 487.73 182.61C496.53 182.61 503.63 179.91 508.73 174.61C513.83 169.31 516.43 162.21 516.43 153.61V146.51C516.33 126.91 506.63 116.91 487.63 116.91V116.91ZM487.63 129.21C492.93 129.21 496.93 130.51 499.63 133.21C502.33 135.91 503.73 140.41 503.73 146.61V153.71C503.73 158.81 502.33 163.01 499.43 166.01C496.53 169.01 492.63 170.51 487.63 170.51C482.63 170.51 478.63 169.01 475.93 166.01C473.23 163.01 471.73 158.91 471.73 153.71V146.51C471.73 140.31 473.13 135.81 475.73 133.11C478.33 130.41 482.43 129.21 487.63 129.21ZM233.33 153.01C233.33 159.51 232.33 164.21 230.43 166.71C228.53 169.21 225.43 170.41 220.73 170.41H220.33C215.73 170.41 212.43 169.11 210.63 166.71C208.73 164.11 207.73 159.51 207.73 153.01V118.61H195.33V153.01C195.33 163.51 197.23 171.21 201.13 175.71C204.83 180.11 210.83 182.41 219.03 182.61H221.93C230.13 182.41 236.13 180.11 239.83 175.71C243.63 171.11 245.63 163.51 245.63 153.01V118.61H233.33V153.01V153.01ZM436.73 153.01C436.73 159.51 435.73 164.11 433.83 166.71C432.03 169.11 428.83 170.41 424.23 170.41H423.63C419.03 170.41 415.73 169.11 413.93 166.71C412.03 164.11 411.03 159.51 411.03 153.01V118.61H398.63V153.01C398.63 163.51 400.53 171.21 404.43 175.71C408.13 180.11 414.13 182.41 422.33 182.61H425.33C433.53 182.41 439.53 180.11 443.23 175.71C446.93 171.31 449.03 163.51 449.03 153.01V118.61H436.63V153.01H436.73V153.01ZM133.13 134.61L102.83 124.51C101.039 123.951 99.3984 122.993 98.03 121.71C97.5323 121.287 97.1251 120.768 96.833 120.183C96.5409 119.599 96.3698 118.962 96.33 118.31V116.31C96.33 109.21 102.23 105.61 114.33 105.41H115.43C127.53 105.41 133.73 108.61 134.43 115.11L134.53 116.11H147.53V115.01C146.93 100.21 136.13 92.61 115.43 92.61H114.13C93.83 92.81 83.63 100.81 83.63 116.31V118.31C83.5932 122.43 85.0095 126.431 87.63 129.61C90.23 132.71 94.13 135.11 99.03 136.71L129.03 146.81C134.13 148.51 136.63 151.31 136.63 155.51V157.31C136.63 161.01 134.83 163.81 131.13 166.01C127.43 168.21 121.93 169.41 115.13 169.41C108.33 169.41 103.03 168.31 99.33 166.01C95.63 163.71 94.03 161.01 94.03 157.31V156.01H81.13V157.31C81.0436 160.856 81.828 164.37 83.4145 167.543C85.001 170.716 87.3411 173.451 90.23 175.51C96.23 179.91 104.53 182.21 115.13 182.21C125.73 182.21 134.33 180.01 140.23 175.51C143.135 173.467 145.487 170.734 147.075 167.558C148.664 164.381 149.438 160.86 149.33 157.31V155.51C149.439 150.763 147.882 146.128 144.93 142.41C141.819 138.741 137.725 136.035 133.13 134.61V134.61ZM176.13 166.11C173.33 163.11 171.93 159.01 171.93 153.81V131.41H185.43V118.61H171.93V94.81H159.33V153.81C159.33 162.41 161.93 169.51 167.03 174.81C171.614 179.43 177.734 182.206 184.23 182.61L185.43 182.71V170.51L184.53 170.41C181.328 169.955 178.371 168.441 176.13 166.11V166.11ZM513.23 115.11H514.83V119.71H515.63V115.11H517.23V114.51H513.23V115.11ZM520.53 118.21L519.13 114.51H517.93V119.71H518.63V115.41L520.33 119.71H520.83L522.43 115.41V119.71H523.23V114.51H521.93L520.53 118.21V118.21Z" fill="#003168"/>
</g>
<defs>
<clipPath id="clip0_308_2">
<rect width="603.95" height="273.52" fill="white"/>
</clipPath>
</defs>
</svg>
