<svg width="44" height="32" viewBox="0 0 44 32" fill="none" xmlns="http://www.w3.org/2000/svg">
<g clip-path="url(#clip0)">
<path d="M10.3472 18.4893V14.7451H2.0415V18.4893H10.3472ZM16.939 16.3535H18.9297C20.7754 16.3535 21.7773 17.3818 21.7773 18.6606C21.7905 20.0054 20.7227 21.0205 18.9824 21.0205C17.2949 21.0205 16.1479 20.0713 16.0557 18.7793H12.0742C12.1138 21.7192 14.2627 24.3296 18.877 24.3296C22.7397 24.3296 26.1411 22.2861 26.1147 18.9375C26.0884 16.0898 24.0713 14.7319 22.3311 14.6133V14.4287C23.689 14.2441 25.6006 12.9653 25.5742 10.4077C25.5479 7.61279 22.7529 5.68799 19.0483 5.68799C14.8428 5.68799 12.4434 7.95557 12.3247 11.1592H16.3721C16.4116 10.0781 17.2817 8.93115 18.877 8.93115C20.3271 8.93115 21.3291 9.81445 21.3423 10.9746C21.3423 12.2271 20.3535 13.1367 18.8374 13.1367H16.939V16.3535ZM28.2373 18.9639C28.3032 21.9038 30.7026 24.3296 35.0269 24.3296C39.2324 24.3296 42.2383 21.8511 42.2383 17.8037C42.2383 14.0859 39.4302 11.8843 36.3188 11.8843C34.1172 11.8843 32.8647 12.8467 32.4692 13.4268H32.2979L32.667 9.40576H40.9463V5.99121H29.2393L28.4746 16.6567H32.3374C32.667 15.958 33.5635 15.0615 35.0928 15.0615C36.7803 15.0615 38.0195 16.2612 38.0195 18.0146C38.0195 19.8472 36.6221 20.981 35.0928 20.981C33.5107 20.981 32.377 20.1636 32.1924 18.9639H28.2373Z" fill="black"/>
</g>
<defs>
<clipPath id="clip0">
<rect width="44" height="32" fill="white"/>
</clipPath>
</defs>
</svg>
