<svg width="44" height="32" viewBox="0 0 44 32" fill="none" xmlns="http://www.w3.org/2000/svg">
<rect width="44" height="32" fill="white"/>
<path d="M15.8681 17.2984H17.8602C19.7071 17.2984 20.7098 18.2914 20.7098 19.5262C20.723 20.8246 19.6544 21.8048 17.9129 21.8048C16.2243 21.8048 15.0765 20.8883 14.9842 19.6407H11C11.0396 22.4795 13.19 25 17.8074 25C21.6728 25 25.0765 23.0269 25.0501 19.7935C25.0237 17.0438 23.0053 15.7327 21.2639 15.6181V15.4399C22.6227 15.2617 24.5356 14.0269 24.5092 11.5573C24.4829 8.85856 21.686 7 17.9789 7C13.7704 7 11.3694 9.18953 11.2507 12.2829H15.3008C15.3404 11.239 16.2111 10.1315 17.8074 10.1315C19.2586 10.1315 20.2612 10.9844 20.2744 12.1047C20.2744 13.314 19.285 14.1924 17.7678 14.1924H15.8681V17.2984Z" fill="black"/>
<path d="M31.1319 15.4399C31.1319 11.9774 32.2401 10.3607 33.8892 10.3607C35.5251 10.3607 36.6464 12.0028 36.6464 15.4399V16.5219C36.6464 19.959 35.5251 21.6393 33.8892 21.6393C32.2401 21.6393 31.1319 19.9844 31.1319 16.5219V15.4399ZM26.7652 16.5347C26.7652 21.5502 29.2586 25 33.8364 25C38.6385 25 41 21.232 41 16.5347V15.4272C41 10.3734 38.5198 7 33.9288 7C29.3773 7 26.7652 10.4116 26.7652 15.4272V16.5347Z" fill="black"/>
</svg>
