<svg width="44" height="32" viewBox="0 0 44 32" fill="none" xmlns="http://www.w3.org/2000/svg">
<path d="M22.5562 25.312V7.31641H18.2979C17.8232 7.56689 14.4614 9.79492 14 10.1377V13.9741C14.4219 13.6709 17.731 11.4692 18.0605 11.2847H18.2451V25.312H22.5562Z" fill="black"/>
<path d="M29.6357 15.7407C29.6357 12.1548 30.7432 10.4805 32.3911 10.4805C34.0259 10.4805 35.1465 12.1812 35.1465 15.7407V16.8613C35.1465 20.4209 34.0259 22.1611 32.3911 22.1611C30.7432 22.1611 29.6357 20.4473 29.6357 16.8613V15.7407ZM25.272 16.8745C25.272 22.0688 27.7637 25.6416 32.3384 25.6416C37.1372 25.6416 39.4971 21.7393 39.4971 16.8745V15.7275C39.4971 10.4937 37.0186 7 32.4307 7C27.8823 7 25.272 10.5332 25.272 15.7275V16.8745Z" fill="black"/>
</svg>
