<svg width="120" height="120" viewBox="0 0 120 120" fill="none" xmlns="http://www.w3.org/2000/svg">
<g clip-path="url(#clip0)">
<g filter="url(#filter0_d)">
<circle cx="60.5" cy="60.5" r="40.5" fill="black" fill-opacity="0.1"/>
</g>
<path fill-rule="evenodd" clip-rule="evenodd" d="M60.5 108C86.7335 108 108 86.7335 108 60.5C108 34.2665 86.7335 13 60.5 13C34.2665 13 13 34.2665 13 60.5C13 86.7335 34.2665 108 60.5 108ZM60.5 101C82.8675 101 101 82.8675 101 60.5C101 38.1325 82.8675 20 60.5 20C38.1325 20 20 38.1325 20 60.5C20 82.8675 38.1325 101 60.5 101Z" fill="white"/>
<path d="M42.1323 31.7543L94.1133 60.1133L42.1323 88.4723L42.1323 31.7543Z" fill="white"/>
</g>
<defs>
<filter id="filter0_d" x="-4" y="-4" width="129" height="129" filterUnits="userSpaceOnUse" color-interpolation-filters="sRGB">
<feFlood flood-opacity="0" result="BackgroundImageFix"/>
<feColorMatrix in="SourceAlpha" type="matrix" values="0 0 0 0 0 0 0 0 0 0 0 0 0 0 0 0 0 0 127 0"/>
<feOffset/>
<feGaussianBlur stdDeviation="12"/>
<feColorMatrix type="matrix" values="0 0 0 0 0 0 0 0 0 0 0 0 0 0 0 0 0 0 0.25 0"/>
<feBlend mode="normal" in2="BackgroundImageFix" result="effect1_dropShadow"/>
<feBlend mode="normal" in="SourceGraphic" in2="effect1_dropShadow" result="shape"/>
</filter>
<clipPath id="clip0">
<rect width="120" height="120" fill="white"/>
</clipPath>
</defs>
</svg>
